<?xml version="1.0" encoding="UTF-8"?>
<svg version="1.1" xmlns="http://www.w3.org/2000/svg" width="500" height="500">
<path d="M0 0 C165 0 330 0 500 0 C500 165 500 330 500 500 C335 500 170 500 0 500 C0 335 0 170 0 0 Z " fill="#010101" transform="translate(0,0)"/>
<path d="M0 0 C4.34119951 3.68127357 7.35279884 7.76711489 10.0625 12.75 C10.47628906 13.49894531 10.89007813 14.24789062 11.31640625 15.01953125 C15.67275821 24.17242404 15.32590578 34.53404707 12.5 44.125 C8.1089798 55.58787378 -0.23832246 62.62851563 -10.98046875 67.98828125 C-20.80202878 71.81104414 -32.37235819 70.30580888 -41.8125 66.1875 C-51.78272005 60.82948804 -57.84470596 53.18586967 -61.9375 42.75 C-64.67902372 33.04100005 -64.26331965 22.20922125 -59.9375 13.125 C-53.69782235 2.36093458 -46.6106498 -2.93048618 -34.9375 -7.25 C-22.31547882 -10.40067297 -10.50023604 -7.5580558 0 0 Z " fill="#5F40AA" transform="translate(117.9375,201.25)"/>
<path d="M0 0 C7.0950203 4.237804 10.95071727 10.65684371 13.57421875 18.34765625 C17.8614563 36.58790329 11.67452685 58.56726076 2.515625 74.53125 C-1.83951001 81.28562107 -7.02799159 87.2022397 -12.56640625 93.00390625 C-13.39205078 93.94169922 -13.39205078 93.94169922 -14.234375 94.8984375 C-22.74220772 104.204536 -35.45037818 111.30887207 -48.1015625 112.2734375 C-56.4526242 112.37516693 -56.4526242 112.37516693 -60.56640625 111.00390625 C-60.61539062 112.11121094 -60.664375 113.21851563 -60.71484375 114.359375 C-61.20939947 125.10075795 -61.82267365 135.83532642 -62.50390625 146.56640625 C-62.61581299 148.483927 -62.61581299 148.483927 -62.72998047 150.44018555 C-62.80877441 151.63812744 -62.88756836 152.83606934 -62.96875 154.0703125 C-63.03570068 155.14224854 -63.10265137 156.21418457 -63.17163086 157.31860352 C-63.56640625 160.00390625 -63.56640625 160.00390625 -65.56640625 163.00390625 C-66.55640625 163.00390625 -67.54640625 163.00390625 -68.56640625 163.00390625 C-69.57825995 159.96834516 -69.66550882 158.03035402 -69.61645508 154.86157227 C-69.60346878 153.81360977 -69.59048248 152.76564728 -69.57710266 151.68592834 C-69.55053841 149.989011 -69.55053841 149.989011 -69.5234375 148.2578125 C-69.50105246 145.87045098 -69.47959672 143.4830806 -69.45898438 141.09570312 C-69.4218426 137.32519787 -69.37872951 133.5551405 -69.31958008 129.78491211 C-69.265198 126.15081199 -69.23602275 122.51721719 -69.2109375 118.8828125 C-69.1871553 117.7535585 -69.16337311 116.6243045 -69.13887024 115.46083069 C-69.13534042 114.40971603 -69.13181061 113.35860138 -69.12817383 112.27563477 C-69.11627518 111.35202652 -69.10437653 110.42841827 -69.09211731 109.4768219 C-69.70646765 106.27363406 -71.12147306 105.07441254 -73.56640625 103.00390625 C-73.23640625 102.01390625 -72.90640625 101.02390625 -72.56640625 100.00390625 C-71.24640625 100.33390625 -69.92640625 100.66390625 -68.56640625 101.00390625 C-67.68505011 94.71180994 -67.26108265 88.47560838 -67.0078125 82.12890625 C-66.96556046 81.08806885 -66.92330841 80.04723145 -66.879776 78.97485352 C-66.43460323 66.98488188 -66.4562091 55.00018939 -66.50390625 43.00390625 C-66.50894235 40.75260519 -66.51350145 38.501303 -66.51757812 36.25 C-66.5283912 30.83461021 -66.54495457 25.41926384 -66.56640625 20.00390625 C-74.90005584 28.08067734 -76.59489258 41.53310291 -76.92138672 52.64599609 C-76.99520609 60.87955666 -76.22271242 67.019447 -71.56640625 74.00390625 C-71.56640625 74.99390625 -71.56640625 75.98390625 -71.56640625 77.00390625 C-74.84555193 76.43853631 -76.50021433 75.63360505 -78.56640625 73.00390625 C-84.51132394 61.11407086 -82.55394222 43.77537761 -78.84375 31.49609375 C-73.58984724 17.13221281 -73.58984724 17.13221281 -68.56640625 13.00390625 C-66.12890625 12.44140625 -66.12890625 12.44140625 -63.56640625 13.00390625 C-59.63349645 17.810796 -58.47514882 21.71072974 -58.36108398 27.77246094 C-58.34113876 28.71313416 -58.32119354 29.65380737 -58.30064392 30.62298584 C-58.28393143 31.63040833 -58.26721893 32.63783081 -58.25 33.67578125 C-58.2292189 34.71333557 -58.20843781 35.75088989 -58.18702698 36.81988525 C-58.12169217 40.13115883 -58.06272108 43.44251107 -58.00390625 46.75390625 C-57.96070576 49.0000081 -57.91709098 51.24610203 -57.87304688 53.4921875 C-57.76602722 58.99601082 -57.66423103 64.49991223 -57.56640625 70.00390625 C-57.4052684 69.45303345 -57.24413055 68.90216064 -57.07810974 68.33459473 C-51.07156946 47.86934987 -51.07156946 47.86934987 -47.62890625 39.50390625 C-47.29318604 38.67914795 -46.95746582 37.85438965 -46.61157227 37.00463867 C-40.79696079 23.05312915 -33.21543806 10.64741132 -20.56640625 2.00390625 C-19.63828125 1.36453125 -18.71015625 0.72515625 -17.75390625 0.06640625 C-11.89112212 -1.88785513 -5.83257829 -2.26378609 0 0 Z M-22.56640625 9.00390625 C-23.22253906 9.55046875 -23.87867188 10.09703125 -24.5546875 10.66015625 C-34.34699751 19.63485591 -39.83642836 31.82259332 -44.56640625 44.00390625 C-45.04722656 45.195 -45.52804687 46.38609375 -46.0234375 47.61328125 C-52.78019564 65.0343741 -59.56640625 87.28822295 -59.56640625 106.00390625 C-53.86701975 108.8535995 -46.3062437 107.18791443 -40.50390625 105.37890625 C-22.77649828 98.78531436 -8.54103393 84.74886057 -0.4609375 67.73046875 C1.28417943 63.86400807 2.88107831 59.95135317 4.43359375 56.00390625 C4.80226563 55.11960938 5.1709375 54.2353125 5.55078125 53.32421875 C9.69825276 42.42334229 10.62672714 27.39249702 7.30078125 16.1875 C4.77293976 10.79433033 2.20132676 6.18040927 -3.56640625 4.00390625 C-11.28559533 2.80630549 -16.61454543 3.99698004 -22.56640625 9.00390625 Z " fill="#B8A2DE" transform="translate(428.56640625,157.99609375)"/>
<path d="M0 0 C2.475 0.495 2.475 0.495 5 1 C4.42471135 5.82108094 3.01820148 10.16286693 1.47387695 14.73730469 C-11.05618735 51.9172081 -26.60302659 102.39647828 -17.5625 141.5 C-17.29566406 142.6859375 -17.02882812 143.871875 -16.75390625 145.09375 C-16.13021033 147.91316028 -16.13021033 147.91316028 -15 150 C-11.28296098 149.58390977 -11.28296098 149.58390977 -8.41894531 147.33569336 C-7.97647461 146.61518799 -7.53400391 145.89468262 -7.078125 145.15234375 C-6.57345703 144.33620605 -6.06878906 143.52006836 -5.54882812 142.67919922 C-2.85602404 138.02112355 -0.27425126 133.31387391 2.25 128.5625 C3.38983962 126.43707862 4.53047262 124.31208255 5.671875 122.1875 C6.51202148 120.62128906 6.51202148 120.62128906 7.36914062 119.0234375 C9.7103475 114.6830923 12.09811886 110.36949696 14.5 106.0625 C14.88446289 105.37293213 15.26892578 104.68336426 15.66503906 103.97290039 C16.03338867 103.31281982 16.40173828 102.65273926 16.78125 101.97265625 C17.13823975 101.33013916 17.49522949 100.68762207 17.86303711 100.02563477 C18.68339933 98.56406179 19.51656211 97.10964794 20.35766602 95.65991211 C20.80811279 94.87495361 21.25855957 94.08999512 21.72265625 93.28125 C22.13523682 92.57162109 22.54781738 91.86199219 22.97290039 91.13085938 C24.05610969 88.88359274 24.536208 86.89172615 24.9375 84.4375 C26.02971122 78.49795137 29.46721247 74.16177373 34 70.29296875 C36.7739309 68.49966577 38.76687393 68.64857325 42 69 C42.66 69.66 43.32 70.32 44 71 C43.89785223 75.494502 42.54250428 78.26678409 39.54296875 81.609375 C36.95005879 83.94627613 34.1029672 85.41809516 31 87 C31.37904208 90.29075996 31.37904208 90.29075996 33 93 C40.47472392 93.9513285 45.09285168 91.50494645 51 87 C53.26941522 84.83649082 55.1498523 82.52677314 57 80 C58.04076787 78.5826729 59.08244237 77.16601111 60.125 75.75 C60.58132812 75.10546875 61.03765625 74.4609375 61.5078125 73.796875 C64.26517833 70.47648683 66.17506865 69.10311642 70.5 68.5625 C74 69 74 69 76.4375 70.8125 C78 73 78 73 78 76 C77.443125 75.855625 76.88625 75.71125 76.3125 75.5625 C73.88615805 74.97230872 71.45093655 74.476571 69 74 C64.37855362 79.00656692 60 84.93800751 60 92 C60.79664063 90.51886719 60.79664063 90.51886719 61.609375 89.0078125 C62.32233757 87.71322257 63.03591136 86.41896913 63.75 85.125 C64.09804688 84.47402344 64.44609375 83.82304687 64.8046875 83.15234375 C66.73868444 79.67831221 68.10007535 77.2472732 72 76 C75.25836161 79.25836161 74.8867275 83.58572911 75.4375 88.03125 C75.73166199 91.10706858 75.73166199 91.10706858 78 93 C82.75548579 93 85.94609995 91.32091572 89.39453125 88.22265625 C92.23763254 84.28658658 93.08665324 79.71879063 94.17578125 75.046875 C95 72 95 72 97 70 C98.32 70 99.64 70 101 70 C101.1749976 74.02494488 100.96029481 77.50715384 100.0625 81.4375 C98.51125948 88.53360025 98.3410937 95.7652231 98 103 C102.7759477 99.77457699 104.66224877 96.38391194 107 91.3125 C107.68597823 89.8807803 108.37347224 88.44978584 109.0625 87.01953125 C109.55556641 85.98626709 109.55556641 85.98626709 110.05859375 84.93212891 C111.87726357 81.19951662 113.92355324 77.59385017 116 74 C116.99 74.33 117.98 74.66 119 75 C118.09688352 80.2378459 116.08096098 84.54167781 113.8125 89.3125 C113.43802734 90.12912109 113.06355469 90.94574219 112.67773438 91.78710938 C109.57137901 98.36126786 106.16036253 104.89309165 100 109 C96.95295248 108.84764762 95.51039217 108.53634431 93.38671875 106.3046875 C91.7047167 103.50924747 91.50539899 101.49070306 91.3125 98.25 C91.24675781 97.26515625 91.18101562 96.2803125 91.11328125 95.265625 C91.07589844 94.51796875 91.03851563 93.7703125 91 93 C90.360625 93.639375 89.72125 94.27875 89.0625 94.9375 C85.10366908 97.60365143 81.76775928 98.4952426 77 98 C73.39987144 96.26858224 71.37895567 93.7751366 69.625 90.1875 C69.315625 89.1046875 69.315625 89.1046875 69 88 C68.57074219 88.57234375 68.14148438 89.1446875 67.69921875 89.734375 C65.1328125 93.15625 62.56640625 96.578125 60 100 C55.125 99.125 55.125 99.125 54 98 C53.63239269 95.67182036 53.29758419 93.3381615 53 91 C52.40832031 91.40992188 51.81664062 91.81984375 51.20703125 92.2421875 C50.41683594 92.78101563 49.62664062 93.31984375 48.8125 93.875 C48.03519531 94.40867187 47.25789063 94.94234375 46.45703125 95.4921875 C41.98115355 98.23891054 38.27951626 99.63354195 33 99 C30.50354232 97.84236841 28.32845084 96.49020854 26 95 C25.74347656 95.68288086 25.48695313 96.36576172 25.22265625 97.06933594 C23.81287373 100.44853508 22.15461478 103.66127578 20.4375 106.890625 C20.08988617 107.54847488 19.74227234 108.20632477 19.38412476 108.8841095 C18.25974605 111.0080419 17.13066705 113.12940899 16 115.25 C15.61628235 115.97009247 15.2325647 116.69018494 14.83721924 117.43209839 C-3.75695883 152.28074143 -3.75695883 152.28074143 -10 156 C-13.625 156.8125 -13.625 156.8125 -17 156 C-23.33502004 151.13824044 -24.64575625 142.53816458 -26 135 C-26.64440063 129.43147026 -26.5810199 123.84672435 -26.5 118.25 C-26.49446106 117.49332031 -26.48892212 116.73664063 -26.48321533 115.95703125 C-26.35932395 101.39197971 -24.8223849 87.3000835 -22 73 C-21.79101074 71.91912109 -21.58202148 70.83824219 -21.36669922 69.72460938 C-18.69049057 56.1651522 -15.2505616 42.83980778 -11.4375 29.5625 C-11.25385895 28.91768677 -11.0702179 28.27287354 -10.88101196 27.60852051 C-5.20681577 7.81022366 -5.20681577 7.81022366 0 0 Z " fill="#B9A3DF" transform="translate(193,146)"/>
<path d="M0 0 C2.1328125 0.39453125 2.1328125 0.39453125 4 1 C5.00902149 5.22706651 6.00563371 9.45696415 7 13.6875 C7.28617188 14.88568359 7.57234375 16.08386719 7.8671875 17.31835938 C8.13789062 18.47529297 8.40859375 19.63222656 8.6875 20.82421875 C8.93886719 21.88729248 9.19023438 22.95036621 9.44921875 24.0456543 C9.95954987 26.7830288 10.10767145 29.22521692 10 32 C8.515 32.495 8.515 32.495 7 33 C5.1089798 27.66732304 3.5454973 22.39734186 2.4296875 16.84765625 C2.05697461 14.91979104 2.05697461 14.91979104 1 13 C-4.61182065 29.06918924 -1.80592345 47.78406857 5.3515625 62.84375 C14.11472171 78.70555774 28.51064953 88.81517544 45.6875 93.8125 C63.69475307 97.86064216 81.44208237 93.57999854 97 84 C99.52692449 81.90626257 101.86244958 79.77378799 104.1328125 77.40625 C106 76 106 76 108.2421875 76.28125 C108.82226562 76.5184375 109.40234375 76.755625 110 77 C105.29352404 87.82969724 92.6723408 92.87380741 82.3828125 97.06640625 C66.74516939 102.66673864 47.55162057 101.5484982 32.64379883 94.64086914 C26.17045164 91.49178983 20.38597409 87.79232965 15 83 C14.38769531 82.46890625 13.77539062 81.9378125 13.14453125 81.390625 C1.85923325 70.92743481 -6.10280105 54.00003596 -7.25 38.65625 C-7.3770553 31.4776257 -6.67828492 24.61245581 -5.4375 17.546875 C-4.94356685 15.10217486 -4.94356685 15.10217486 -5 13 C-5.89203125 13.95003906 -6.7840625 14.90007812 -7.703125 15.87890625 C-8.88474564 17.1074166 -10.06707429 18.33524624 -11.25 19.5625 C-12.12978516 20.50512695 -12.12978516 20.50512695 -13.02734375 21.46679688 C-13.60097656 22.05654297 -14.17460937 22.64628906 -14.765625 23.25390625 C-15.28930664 23.80377197 -15.81298828 24.3536377 -16.35253906 24.92016602 C-18 26 -18 26 -20.20214844 25.67163086 C-20.79543945 25.44999268 -21.38873047 25.22835449 -22 25 C-20.40069566 20.95864413 -17.51339591 18.32092848 -14.4375 15.375 C-10.77285984 12.03597098 -10.77285984 12.03597098 -8 8 C-7.34 8 -6.68 8 -6 8 C-5.7525 7.4225 -5.505 6.845 -5.25 6.25 C-3.7872851 3.61711318 -2.36173231 1.87549331 0 0 Z " fill="#5B3CA1" transform="translate(33,199)"/>
<path d="M0 0 C1.32 0.33 2.64 0.66 4 1 C3.773125 1.886875 3.54625 2.77375 3.3125 3.6875 C2.66341549 6.98360201 2.66341549 6.98360201 4.44921875 9.3203125 C7.27742952 14.20734673 6.68442324 19.53095131 6 25 C4.18569763 30.46450595 2.01039725 34.91895022 -3 38 C-6.08328362 37.92479796 -7.45695325 37.55084168 -9.6328125 35.34375 C-11.42543945 32.27067523 -11.36569087 30.10173873 -11.3125 26.5625 C-11.30863281 25.45003906 -11.30476563 24.33757812 -11.30078125 23.19140625 C-11.00675048 20.07162522 -10.32333374 17.82065161 -9 15 C-17.4910085 14.7260197 -17.4910085 14.7260197 -24.6875 18.375 C-26.42584002 23.17612959 -27.31700516 27.94943292 -28 33 C-30.475 33.495 -30.475 33.495 -33 34 C-33.05815112 29.60422239 -33.09364767 25.20854402 -33.125 20.8125 C-33.14175781 19.56662109 -33.15851563 18.32074219 -33.17578125 17.03710938 C-33.18222656 15.83505859 -33.18867188 14.63300781 -33.1953125 13.39453125 C-33.20578613 12.28956299 -33.21625977 11.18459473 -33.22705078 10.04614258 C-32.99727629 6.96345835 -32.3081849 4.78159038 -31 2 C-29.68 2 -28.36 2 -27 2 C-26.67 5.63 -26.34 9.26 -26 13 C-25.01 12.34 -24.02 11.68 -23 11 C-19.71484375 10.76953125 -19.71484375 10.76953125 -15.9375 10.8125 C-14.06384766 10.82216797 -14.06384766 10.82216797 -12.15234375 10.83203125 C-9 11 -9 11 -7 12 C-6.95875 11.319375 -6.9175 10.63875 -6.875 9.9375 C-5.62612319 5.74484213 -2.95973269 3.1407561 0 0 Z " fill="#BAA4E0" transform="translate(476,217)"/>
<path d="M0 0 C0.66 0.66 1.32 1.32 2 2 C1.78265668 6.89022459 0.38508051 9.52343083 -3 13 C-8.2972973 17 -8.2972973 17 -12 17 C-11.67 19.31 -11.34 21.62 -11 24 C-2.72337737 24.95093111 2.40907835 23.00769314 9 18 C10.00536887 17.06919198 10.99019928 16.11484417 11.9375 15.125 C12.618125 14.42375 13.29875 13.7225 14 13 C14.99 13 15.98 13 17 13 C16.16797424 18.74737797 11.38477868 21.68515983 7 25 C2.04599629 28.09254423 -3.01156687 31.22490678 -9 30 C-12.99706135 27.84773619 -15.30760321 26.20394453 -17 22 C-17.87632054 17.09260497 -17.41467569 13.06173236 -14.875 8.75 C-11.01829567 3.31802207 -7.22336169 -1.14917118 0 0 Z " fill="#B49ED9" transform="translate(330,215)"/>
<path d="M0 0 C0.99 0.33 1.98 0.66 3 1 C2.41256309 4.34253434 1.35924233 6.032785 -0.984375 8.4609375 C-1.89316406 9.41613281 -1.89316406 9.41613281 -2.8203125 10.390625 C-3.45710938 11.04546875 -4.09390625 11.7003125 -4.75 12.375 C-13.13694205 20.09582923 -13.13694205 20.09582923 -18.25 29.8125 C-19 33 -19 33 -20 34 C-23.375 34 -23.375 34 -27 33 C-27.69081913 31.32199825 -28.37651501 29.641554 -29.02636719 27.94726562 C-30.84192566 24.31614868 -33.9241897 21.89325465 -36.9375 19.25 C-37.55818359 18.68667969 -38.17886719 18.12335938 -38.81835938 17.54296875 C-41.77657472 14.87773959 -44.75214432 12.31175693 -48 10 C-47.67 9.01 -47.34 8.02 -47 7 C-43.10466535 7.11804044 -41.30206152 8.44447477 -38.6875 11.125 C-38.10097656 11.74890625 -37.51445313 12.3728125 -36.91015625 13.015625 C-34.29408861 15.73333944 -31.45812336 18.15767757 -28.6015625 20.6171875 C-27.71147181 21.38570483 -26.83152881 22.16847119 -26 23 C-23.68708977 23.54477547 -23.68708977 23.54477547 -21 23 C-18.97432673 21.20736879 -17.34847183 19.54784339 -15.625 17.5 C-14.90763672 16.68221069 -14.90763672 16.68221069 -14.17578125 15.84790039 C-12.77118247 14.24240802 -11.38486121 12.6225153 -10 11 C-8.66797075 9.47802435 -7.33487251 7.95698254 -6 6.4375 C-5.484375 5.83808594 -4.96875 5.23867187 -4.4375 4.62109375 C-3.01449184 3.0163427 -1.53215479 1.5002349 0 0 Z " fill="#07050B" transform="translate(116,205)"/>
<path d="M0 0 C0.99 0.33 1.98 0.66 3 1 C3.33 4.63 3.66 8.26 4 12 C4.99 11.34 5.98 10.68 7 10 C10.35546875 9.8046875 10.35546875 9.8046875 14.1875 9.875 C15.45980469 9.89304688 16.73210937 9.91109375 18.04296875 9.9296875 C19.50669922 9.96449219 19.50669922 9.96449219 21 10 C21 11.32 21 12.64 21 14 C19.66195313 14.00386719 19.66195313 14.00386719 18.296875 14.0078125 C11.209429 14.02689263 11.209429 14.02689263 5.3125 17.375 C3.57415998 22.17612959 2.68299484 26.94943292 2 32 C-0.475 32.495 -0.475 32.495 -3 33 C-3.05815112 28.60422239 -3.09364767 24.20854402 -3.125 19.8125 C-3.14175781 18.56662109 -3.15851563 17.32074219 -3.17578125 16.03710938 C-3.18222656 14.83505859 -3.18867188 13.63300781 -3.1953125 12.39453125 C-3.20578613 11.28956299 -3.21625977 10.18459473 -3.22705078 9.04614258 C-2.9787765 5.7152628 -2.45125288 2.45125288 0 0 Z " fill="#B69FDB" transform="translate(446,218)"/>
<path d="M0 0 C0.66 0.33 1.32 0.66 2 1 C2.3740628 7.76083868 1.96267148 12.85519989 -1 19 C-1.99 19.66 -2.98 20.32 -4 21 C-5.8506169 17.29876621 -5.19084202 13.72164914 -4.16015625 9.82421875 C-3.79792969 8.78910156 -3.43570312 7.75398437 -3.0625 6.6875 C-2.70285156 5.63949219 -2.34320313 4.59148437 -1.97265625 3.51171875 C-1 1 -1 1 0 0 Z " fill="#0F0D12" transform="translate(475,228)"/>
<path d="M0 0 C0.5775 0.2475 1.155 0.495 1.75 0.75 C0.76 1.41 -0.23 2.07 -1.25 2.75 C-2.66020825 5.04443158 -3.97650151 7.32003758 -5.25 9.6875 C-9.38078386 17.32013258 -9.38078386 17.32013258 -12.25 19.75 C-11.77911443 12.37279276 -8.7166065 6.88931736 -4.1875 1.125 C-2.25 -0.25 -2.25 -0.25 0 0 Z " fill="#151219" transform="translate(264.25,219.25)"/>
<path d="M0 0 C4.43458973 1.3937282 6.87378374 3.60582235 10 7 C9.67 7.99 9.34 8.98 9 10 C4.62140745 9.49477778 2.18348776 6.82172778 -1 4 C-0.67 2.68 -0.34 1.36 0 0 Z " fill="#5A3CA1" transform="translate(132,178)"/>
<path d="M0 0 C0.99 0.33 1.98 0.66 3 1 C2.71640113 2.4391134 2.42278601 3.87625518 2.125 5.3125 C1.96257812 6.11300781 1.80015625 6.91351563 1.6328125 7.73828125 C1 10 1 10 -1 13 C-1.99 12.67 -2.98 12.34 -4 12 C-3.71788123 10.3733152 -3.42397625 8.74867104 -3.125 7.125 C-2.96257812 6.22007812 -2.80015625 5.31515625 -2.6328125 4.3828125 C-2 2 -2 2 0 0 Z " fill="#563A9A" transform="translate(156,245)"/>
<path d="M0 0 C4.12751449 0.60698743 7.3321148 2.03810791 11 4 C11 5.32 11 6.64 11 8 C6.61110675 7.33501617 3.0188515 5.81242323 -1 4 C-0.67 2.68 -0.34 1.36 0 0 Z " fill="#583B9C" transform="translate(115,169)"/>
<path d="M0 0 C3 1 3 1 4.1875 3.1875 C5.07334979 6.25390311 5.14770318 8.82438155 5 12 C3.68 12 2.36 12 1 12 C-0.47075246 7.58774263 -1.36884358 4.51718381 0 0 Z " fill="#5B3DA1" transform="translate(154,208)"/>
<path d="M0 0 C2.25 0.0625 2.25 0.0625 5 1 C6.86135162 3.24865149 7.78061322 5.27982948 9 8 C8.67 8.99 8.34 9.98 8 11 C7.01 11 6.02 11 5 11 C3.61328125 9.35546875 3.61328125 9.35546875 2.3125 7.1875 C1.87550781 6.47980469 1.43851563 5.77210938 0.98828125 5.04296875 C0 3 0 3 0 0 Z " fill="#5B3DA2" transform="translate(144,192)"/>
<path d="M0 0 C1.32 0.33 2.64 0.66 4 1 C2.6302836 4.99500618 0.74277578 7.80009492 -2 11 C-2.99 10.67 -3.98 10.34 -5 10 C-4.38545304 6.00544473 -2.29353263 3.25533664 0 0 Z " fill="#5A3CA0" transform="translate(148,263)"/>
<path d="M0 0 C4.54805635 -0.17835515 7.8794254 0.00214565 12 2 C12 2.99 12 3.98 12 5 C7.17639811 5.19294408 3.50353262 4.75747614 -1 3 C-0.67 2.01 -0.34 1.02 0 0 Z " fill="#5A3CA0" transform="translate(97,165)"/>
<path d="M0 0 C-1.0799689 3.13190982 -2.00950474 4.00599212 -4.875 5.8125 C-7.97683969 6.99119908 -9.0201445 7.26070809 -12 6 C-10.91663521 2.50915788 -9.8952877 1.94478806 -6.5625 0.1875 C-3 -1 -3 -1 0 0 Z " fill="#583B9D" transform="translate(72,170)"/>
<path d="M0 0 C0 1.32 0 2.64 0 4 C-4.0527516 4.98248524 -7.83861737 5.08159574 -12 5 C-11.67 3.68 -11.34 2.36 -11 1 C-7.27569643 0.30710631 -3.78916254 -0.11144596 0 0 Z " fill="#5A3CA0" transform="translate(89,165)"/>
<path d="M0 0 C0.99 0 1.98 0 3 0 C3 3.96 3 7.92 3 12 C1.68 11.67 0.36 11.34 -1 11 C-1.02688151 9.35425434 -1.04634123 7.70838587 -1.0625 6.0625 C-1.07410156 5.14597656 -1.08570313 4.22945312 -1.09765625 3.28515625 C-1 1 -1 1 0 0 Z " fill="#593B9E" transform="translate(157,227)"/>
<path d="M0 0 C0.598125 0.20625 1.19625 0.4125 1.8125 0.625 C1.4825 1.945 1.1525 3.265 0.8125 4.625 C-1.1675 4.955 -3.1475 5.285 -5.1875 5.625 C-5.1875 4.305 -5.1875 2.985 -5.1875 1.625 C-2.1875 -0.375 -2.1875 -0.375 0 0 Z " fill="#543896" transform="translate(135.1875,207.375)"/>
<path d="M0 0 C1.32 0.33 2.64 0.66 4 1 C4.33 2.98 4.66 4.96 5 7 C3.68 7 2.36 7 1 7 C0.67 4.69 0.34 2.38 0 0 Z " fill="#553996" transform="translate(113,268)"/>
<path d="M0 0 C-0.33 1.65 -0.66 3.3 -1 5 C-2.65 5.33 -4.3 5.66 -6 6 C-6 4.68 -6 3.36 -6 2 C-3 0 -3 0 0 0 Z " fill="#583B9D" transform="translate(57,251)"/>
<path d="M0 0 C4.75 0.875 4.75 0.875 7 2 C6.67 3.32 6.34 4.64 6 6 C3.5625 5.25 3.5625 5.25 1 4 C0.1875 1.875 0.1875 1.875 0 0 Z " fill="#563A9A" transform="translate(129,253)"/>
<path d="M0 0 C1.32 0 2.64 0 4 0 C4 2.31 4 4.62 4 7 C2.68 7 1.36 7 0 7 C0 4.69 0 2.38 0 0 Z " fill="#573A9A" transform="translate(91,274)"/>
<path d="M0 0 C0.99 0.33 1.98 0.66 3 1 C2.49396008 3.16874252 2.00016187 4.99967627 1 7 C-0.32 6.67 -1.64 6.34 -3 6 C-1.125 1.125 -1.125 1.125 0 0 Z " fill="#5B3DA2" transform="translate(117,190)"/>
<path d="M0 0 C1.32 0 2.64 0 4 0 C3.67 1.65 3.34 3.3 3 5 C1.35 5.33 -0.3 5.66 -2 6 C-1.49396008 3.83125748 -1.00016187 2.00032373 0 0 Z " fill="#593C9E" transform="translate(69,268)"/>
<path d="M0 0 C1.32 0.33 2.64 0.66 4 1 C4.33 2.98 4.66 4.96 5 7 C3.68 6.67 2.36 6.34 1 6 C0.67 4.02 0.34 2.04 0 0 Z " fill="#5B3DA2" transform="translate(69,189)"/>
<path d="M0 0 C1.32 0 2.64 0 4 0 C4 2.31 4 4.62 4 7 C2.68 6.67 1.36 6.34 0 6 C0 4.02 0 2.04 0 0 Z " fill="#543896" transform="translate(92,184)"/>
<path d="M0 0 C1.98 0 3.96 0 6 0 C6 1.32 6 2.64 6 4 C4.02 4 2.04 4 0 4 C0 2.68 0 1.36 0 0 Z " fill="#5D3EA5" transform="translate(136,231)"/>
<path d="M0 0 C0.33 0.66 0.66 1.32 1 2 C-1.65654657 5.73884332 -3.58110387 7.64978174 -8 9 C-5.68462045 5.27885429 -3.71420527 2.38770339 0 0 Z " fill="#24202B" transform="translate(232,219)"/>
<path d="M0 0 C0.66 0 1.32 0 2 0 C0.73058503 3.91402949 -0.51167694 5.79072873 -4 8 C-4.66 7.67 -5.32 7.34 -6 7 C-5.04882866 5.8274869 -4.08882991 4.66212985 -3.125 3.5 C-2.59132813 2.8503125 -2.05765625 2.200625 -1.5078125 1.53125 C-0.76144531 0.77328125 -0.76144531 0.77328125 0 0 Z " fill="#1C1922" transform="translate(325,220)"/>
<path d="M0 0 C0.598125 0.226875 1.19625 0.45375 1.8125 0.6875 C0.8225 1.3475 -0.1675 2.0075 -1.1875 2.6875 C-1.8475 3.3475 -2.5075 4.0075 -3.1875 4.6875 C-4.50497324 5.38498583 -5.83664193 6.05709957 -7.1875 6.6875 C-3.9375 -0.5625 -3.9375 -0.5625 0 0 Z " fill="#1F1C26" transform="translate(264.1875,219.3125)"/>
</svg>
